<svg height="512pt" viewBox="0 -41 512 512" width="512pt" xmlns="http://www.w3.org/2000/svg"><path d="m407 0h-302c-57.898438 0-105 47.101562-105 105v168.945312c0 57.898438 47.101562 105 105 105h15.582031l36.519531 46.332032c2.847657 3.609375 7.1875 5.714844 11.78125 5.714844s8.9375-2.105469 11.78125-5.714844l36.519532-46.332032h189.816406c57.898438 0 105-47.101562 105-105v-168.945312c0-57.898438-47.101562-105-105-105zm0 0" fill="#ff337a"/><path d="m407 0h-130.734375v378.945312h130.734375c57.898438 0 105-47.101562 105-105v-168.945312c0-57.898438-47.101562-105-105-105zm0 0" fill="#d1005b"/><g fill="#ffe95c"><path d="m188.824219 120.410156h-36.136719c-.070312 0-.136719-.046875-.15625-.113281l-11.167969-34.367187c-1.113281-3.429688-4.164062-5.644532-7.765625-5.644532h-.003906c-3.601562 0-6.652344 2.214844-7.765625 5.644532l-11.167969 34.367187c-.019531.066406-.085937.113281-.15625.113281h-36.136718c-3.605469 0-6.652344 2.214844-7.765626 5.644532-1.117187 3.425781.046876 7.011718 2.964844 9.128906l29.234375 21.242187c.058594.042969.082031.117188.0625.183594l-11.167969 34.371094c-1.113281 3.425781.050782 7.011719 2.96875 9.128906 1.457032 1.0625 3.128907 1.589844 4.800782 1.589844 1.667968 0 3.339844-.527344 4.800781-1.589844l29.230469-21.238281c.0625-.046875.140625-.042969.195312 0l29.238282 21.238281c2.914062 2.121094 6.683593 2.121094 9.597656 0 2.917968-2.117187 4.082031-5.703125 2.96875-9.128906l-11.167969-34.367188c-.019531-.070312.003906-.144531.0625-.1875l29.234375-21.242187c2.914062-2.117188 4.078125-5.703125 2.96875-9.128906-1.117188-3.429688-4.164062-5.644532-7.769531-5.644532zm0 0"/><path d="m226.273438 84.441406h10.722656c8.285156 0 15-6.714844 15-15s-6.714844-15-15-15h-10.722656c-8.285157 0-15 6.714844-15 15s6.714843 15 15 15zm0 0"/><path d="m236.996094 197.390625h-10.722656c-8.285157 0-15 6.714844-15 15s6.714843 15 15 15h10.722656c8.285156 0 15-6.714844 15-15s-6.714844-15-15-15zm0 0"/><path d="m260.621094 125.917969h-10.726563c-8.285156 0-15 6.714843-15 15 0 8.28125 6.714844 15 15 15h10.726563c8.285156 0 15-6.71875 15-15 0-8.285157-6.714844-15-15-15zm0 0"/></g></svg>