<svg id="Capa_1" enable-background="new 0 0 512 512" height="512" viewBox="0 0 512 512" width="512" xmlns="http://www.w3.org/2000/svg"><path d="m388.014 238.301h-6.791c40.145-58.077 35.153-137.489-14.201-190.2-60.044-64.13-161.991-64.139-222.043 0-49.401 52.762-54.308 132.178-14.201 190.2h-6.791c-19.302 0-35.004 15.702-35.004 35.004v51.565c0 2.284.52 4.468 1.437 6.408 14.803 31.348 35.567 68.529 35.567 127.694v38.026c0 8.285 6.717 15.002 15.002 15.002s15.002-6.717 15.002-15.002v-38.026c0-7.689-.36-15.388-1.043-23.064h46.881v61.09c0 8.285 6.717 15.002 15.002 15.002s15.002-6.717 15.002-15.002v-61.09h48.339v61.09c0 8.285 6.717 15.002 15.002 15.002s15.002-6.717 15.002-15.002v-61.09h46.881c-.683 7.676-1.043 15.375-1.043 23.064v38.026c0 8.285 6.717 15.002 15.002 15.002s15.002-6.717 15.002-15.002v-38.026c0-34.261 7.732-68.746 22.361-99.726l13.206-27.968c.906-1.933 1.437-4.141 1.437-6.408v-51.565c-.004-19.302-15.706-35.004-35.008-35.004zm-15.602-123.093c.01.01.01.01.01.02 3.724 11.969 4.46 20.221 4.721 21.787h-42.135c0-.001 0-.003 0-.005 2.42-19.802 9.641-38.604 21.062-54.916.54 1.072 9.928 12.941 16.342 33.114zm4.73 51.81c-.762 6.987-2.641 15.096-4.72 21.778 0 .01 0 .01-.01.02-6.059 19.489-15.819 32.078-16.342 33.123-11.43-16.311-18.651-35.121-21.062-54.921zm-106.14-136.169c23.973 2.89 46.215 12.721 64.527 28.543-17.332 22.522-27.943 49.325-30.713 77.618v.005h-33.813v-106.166zm0 136.169h33.814c2.511 25.681 11.482 50.142 26.102 71.283h-59.916zm-30.004-136.169v106.166h-33.813c0-.001 0-.003 0-.005-2.77-28.293-13.381-55.096-30.713-77.618 18.312-15.821 40.554-25.652 64.526-28.543zm0 136.169v71.283h-59.916c14.621-21.141 23.591-45.602 26.102-71.283zm-106.141-30.007h.01c.08-1 1.262-10.699 4.711-21.782 0-.01 0-.01.01-.02 6.413-20.154 15.811-32.059 16.342-33.113 11.421 16.312 18.642 35.114 21.072 54.916v.005h-42.146c.001-.003.001-.005.001-.006zm42.144 30.007c-2.421 19.8-9.641 38.611-21.072 54.921-.594-1.187-9.691-12.487-16.342-33.123-.01-.01-.01-.01-.01-.02-2.882-9.263-4.434-18.357-4.71-21.778zm24.826 238.887h-51.301c-5.436-26.409-12.837-44.784-22.871-66.033h74.171v66.033zm78.343 0h-48.34v-66.033h48.339v66.033zm81.303 0h-51.301v-66.033h74.171c-4.997 10.585-15.996 32.641-22.87 66.033zm31.541-96.036h-274.028v-36.564c0-2.76 2.24-5.001 5.001-5.001h264.028c2.76 0 5.001 2.24 5.001 5.001v36.564z"/></svg>