<svg id="Capa_1" enable-background="new 0 0 512 512" height="512" viewBox="0 0 512 512" width="512" xmlns="http://www.w3.org/2000/svg"><g><path d="m512 120.609h-156.312l-18.39-60h-162.596l-18.39 60h-27.312v-10c0-27.57-22.43-50-50-50s-50 22.43-50 50v10h-29v307h180.194c42.938 31.713 108.68 31.709 151.613 0h180.193zm-333.505 30 18.391-60h118.229l18.391 60h148.494v112h-106.954c-47.544-99.513-190.59-99.456-238.092 0h-106.954v-112zm-119.495-40c1.101-26.538 38.907-26.521 40 0v10h-40zm-29 182h96.781c-7.956 36.1 1.398 76.695 22.8 105h-119.581zm124 27c0-56.243 45.757-102 102-102 135.317 5.603 135.278 198.418-.001 204-56.242 0-101.999-45.757-101.999-102zm208.419 78c21.401-28.298 30.757-68.907 22.8-105h96.781v105z"/><path d="m221 120.609h70v30h-70z"/><path d="m404 180.609h48v30h-48z"/><path d="m276.965 261.109c-7.438 0-14.597 1.815-20.967 5.233-16.674-9.192-39.052-5.981-52.375 7.779-17.321 17.321-17.321 45.503 0 62.824l52.377 52.377 52.377-52.377c27.844-27.714 7.847-76.001-31.412-75.836zm10.199 54.623-31.164 31.163-31.164-31.164c-9.049-8.933-2.508-24.729 10.199-24.623 3.852 0 7.474 1.5 10.216 4.241l10.749 10.717 10.766-10.733c5.37-5.595 15.029-5.595 20.398 0 5.624 5.624 5.624 14.775 0 20.399z"/></g></svg>